<?xml version="1.0" encoding="UTF-8"?>
<svg id="Layer_1" xmlns="http://www.w3.org/2000/svg" version="1.1" xmlns:inkscape="http://www.inkscape.org/namespaces/inkscape" xmlns:sodipodi="http://sodipodi.sourceforge.net/DTD/sodipodi-0.dtd" xmlns:svg="http://www.w3.org/2000/svg" xmlns:xlink="http://www.w3.org/1999/xlink" viewBox="0 0 1920 4320">
  <!-- Generator: Adobe Illustrator 29.3.0, SVG Export Plug-In . SVG Version: 2.1.0 Build 146)  -->
  <defs>
    <style>
      .st0 {
        fill-opacity: 0;
      }

      .st0, .st1, .st2, .st3, .st4, .st5, .st6 {
        fill: #fff;
      }

      .st1, .st7, .st8, .st3, .st5, .st6 {
        isolation: isolate;
      }

      .st1, .st8, .st3, .st6 {
        opacity: .9;
      }

      .st9 {
        fill: #fd9e00;
      }

      .st7 {
        fill: url(#radial-gradient);
        opacity: .5;
      }

      .st10 {
        fill: #2f5ea1;
      }

      .st11, .st8 {
        fill: #ff9f00;
      }

      .st3, .st4 {
        fill-opacity: .8;
      }

      .st12 {
        fill: #3469b3;
      }

      .st5 {
        opacity: .8;
      }

      .st13 {
        fill: url(#linear-gradient);
      }

      .st14 {
        fill: #365b92;
      }

      .st6 {
        fill-opacity: .7;
      }
    </style>
    <linearGradient id="linear-gradient" x1="959.9" y1="3844.7" x2="959.9" y2="2983.2" gradientTransform="translate(0 4320) scale(1 -1)" gradientUnits="userSpaceOnUse">
      <stop offset=".3" stop-color="#3469b3"/>
      <stop offset="1" stop-color="#000"/>
    </linearGradient>
    <radialGradient id="radial-gradient" cx="753.5" cy="5257.5" fx="753.5" fy="5257.5" r="24.5" gradientTransform="translate(132.6 7569.8) scale(1.3 -1.3)" gradientUnits="userSpaceOnUse">
      <stop offset="0" stop-color="#fff" stop-opacity=".7"/>
      <stop offset="1" stop-color="#fff" stop-opacity="0"/>
    </radialGradient>
  </defs>
  <g id="svg1" inkscape:version="1.3.2 (091e20e, 2023-11-25, custom)">
    <sodipodi:namedview id="namedview1" bordercolor="#000000" borderopacity="0.25" inkscape:current-layer="layer9" inkscape:cx="846.27212" inkscape:cy="1061.0667" inkscape:deskcolor="#d1d1d1" inkscape:document-units="px" inkscape:pagecheckerboard="true" inkscape:pageopacity="0.0" inkscape:showpageshadow="2" inkscape:window-height="1289" inkscape:window-maximized="0" inkscape:window-width="2106" inkscape:window-x="2295" inkscape:window-y="1123" inkscape:zoom="0.54237873" pagecolor="#ffffff"/>
    <g id="layer4" inkscape:groupmode="layer" inkscape:label="LAND">
      <path id="polygon9205" class="st13" d="M983.9,750.3l39.3,9.8,140,2.3,52.2,3.5,197.5-50.7,58.8-85.6,110.2-2.2,230.6-46,107.4,18v3727H0V526.3l148,2,37.1,61.2,153.5,7.4,55.1,73.3,167.2.7,54.9,82.9,197.4-5.3,170.7,1.8h0Z" sodipodi:insensitive="true" sodipodi:nodetypes="cccccccccccccccccccc"/>
    </g>
    <g id="layer2" inkscape:groupmode="layer" inkscape:label="ROAD LIGHT">
      <path id="path5" class="st12" d="M1082.7,754.3l2.2.7-.5,10.5-1.5-.2-.2-11Z"/>
      <path id="path12" class="st12" d="M1084.2,756.2l8.8,6.1-1.7.7-7.3-5.8.2-1Z"/>
      <path id="path13" class="st12" d="M1083.7,759.7l4.7,2.5-2,.2-2.9-1.9.2-.8h0Z"/>
      <path id="path1" class="st10" d="M1076.9,760.9l-52.8,23-55.5,9.5-59.2,18.6-57.2,35.2-52.1,39.6-19.3,46v60.2l37-.8-1.5-5.8-1.2-9-2-47.4,14.2-41.4,42.8-37.2,48.9-32.1,43.5-12.3,39.6-8.3,41.1-9,32.6-12.5,29.2-15.7-28.2-.6h.1Z" sodipodi:nodetypes="ccccccccccccccccccccc"/>
      <g id="g52">
        <circle id="path51" class="st7" cx="1112.2" cy="735" r="31.9"/>
        <path id="path14" class="st12" d="M1119.1,766.7l4.4-38.1-.7-2,1.3-1.8,1.1.2,1.3,2-1.1,1.8-4.8,38.3-1.5-.4h0Z"/>
        <path id="path15" class="st12" d="M1123.9,732.3l-11.7-3.3-.9,1.5,12.3,3.3.2-1.5h0Z"/>
        <path id="path16" class="st12" d="M1112.2,730.7v1.8h.3v-1.8h-.3Z"/>
        <g id="path18">
          <polygon class="st2" points="1111.1 733.3 1111.2 736.9 1113.6 736.7 1113.5 733.1 1111.1 733.3"/>
        </g>
        <path id="path17" class="st12" d="M1112.3,731.9l-1.6,1v.5h3.1v-.6l-1.5-.9Z"/>
        <path id="path19" class="st12" d="M1110.8,736.7l3-.2-.2.9h-2.5l-.3-.8h0Z"/>
        <path id="path18-1" class="st4" d="M1111.1,733.3v3.6l2.5-.2v-3.6l-2.5.2Z"/>
        <path id="path82" class="st3" d="M1122.9,733.7h.6l-3.7,29.8-.6-.3-.2-.4.9-4,3-25.2h0Z"/>
        <path id="path83" class="st3" d="M1114.3,731.4l8.9,2,.3.5-9.2-2.5h0Z"/>
      </g>
    </g>
    <g id="layer3" inkscape:groupmode="layer" inkscape:label="FRNCE">
      <path id="path2" class="st12" d="M1072.2,749l-2.2.2.3,2.4-11.7,6.4v-1.5l-1.4.2v2l-12.7,6.4v-2.3l-1.8,1.2.2,10.5,2-1.4v-1.3l12.8-5.3v1.5l1.6-.3v-2.1l12.1-6,.2,2,1.9-.2-.2-2.6,10.4,2-.2-1.4-10.3-1.6-.5-4.8,10.8,4.2.3-1.4-11.2-4.2-.3-2.8v.2h-.1ZM1070.5,753.4l.6,4.8-12.1,6-.3-4.8,11.8-6.1h0ZM1057.3,760.2l.2,4.9-12.9,5.3-.2-3.9,12.8-6.3h0Z"/>
      <path id="path53" class="st5" d="M1071.5,749.1l1.3,12.9.5-.3-1.3-12.7h-.6,0ZM1070.7,751.3l-12.2,6.7v.3l12.2-6.6v-.5h0ZM1072.4,751.8v.6l10.6,3.9v-.6l-10.6-4h0ZM1082.7,754.4l1.5,1-.2,5.7h.5v-.5l.9.5h.8l-1.6-.7h0l.2-3.4,5.9,4.2h.7l-6.6-4.5h0v-.9h0v-.7l-.5-.2h0l-1.6-.4h0ZM1058.2,756.5l.6,10.3.2-.3v-2.2h0l12.5-6.2v-.3l-12.6,6.2-.5-7.6h-.2ZM1073,757.9v.2l10.1,1.9v-.5l-10.1-1.6h0ZM1057.5,758.5l-10.3,5.1v.3l10.3-5.2v-.3h0ZM1057.9,764.6l-9.4,4.5v.4l9.4-4.6v-.3h0Z"/>
    </g>
    <g id="layer5" inkscape:groupmode="layer" inkscape:label="TREES">
      <path id="path9214" class="st12" d="M18,435l-9.3,9.3,4.4,5.3h4.7c0,.1-3.1,5.6-3.1,5.6l-8.2-9.3-30.3,2.3-13.7,16.4,6.2,7.9,16,.2,2.7,5,28.2,13.8h0l11.1,16.8-2.5,22.5h14.8l-2.4-28.7-.3-.3,4.8-4,1.6-7.2,15.6.9,5.9-7.4-14.4-13.6-16.9-1.1-9.9,14.2,5.9,6.2,11.7.7-2.4,5.8-5.4,2.4-11.5-10.6-2.8-15.9,7-4.6-8-9.1,4.1-8.5,10.2.2,3.1-4.1-4.4-8.4-12.5-2.5v-.2h0ZM-11.6,472.9H-2.7c0,.1-2.4,6.6-2.4,6.6l-5.2-2.8-1.3-3.8h0ZM.5,473l12.9.2,1.5,13.7-16.7-6.2,2.3-7.6h0ZM1714.3,507.6l-13.8.7-5.3,5,4.4,3.5h4.3l2.1,5.8-1.6,3.1-4.1-3.9-30.5-.8-8.9,5.3,5,6.7,7.8.2.9,1.9,14.4,5.2-1.9,7-35.6.2-8.9,11.9,4.2,7.6,16.1-.2,4.8,5.9h0l9.8,1.4,12.6,7.5.2,1s-3.7,24.2-4.3,26.6l14.8.4-1.7-24.2-3.1-9.6,12.9-12.7,1.2-3.4,10.8-7.1,15.4-.2,7.1-6.8-11.1-8.9-26.2-.7-10.8,9.9,4.8,6.8h10.8l-3.1,8.5-13.3,9.7-1.3-4.1v-.6h1.9l4.6-7.6-8.5-8.5,1.9-13.1,4.9-3.2,6,.2,3.6-5.1-2-1.9,1.9-3.9,2.7-6.2h9.7l4.8-3.9-10.6-5.3h.2,0ZM220.5,508.4l-13.5,15.8-9.2-.5-13,7.9,5.9,5.9h12.6l1.6,2.4-1.6,2.5,2.5-.9,1,1.6-6.7,10.4,6.3-2-7.2,12.6,5.6-.7-9.9,12.4,7.5-1.1,5.3,4.2,7.1-3.1-2.1,28.2h10.3l-2.1-28.4,6.3,4.1,4-3.3,8,3.1-10-13.3,5.2,2.1-9-15s4.7,2.3,5,2.5c.2,0-2.1-3.4-4.2-6.8l18.1,7,7.2,8,3.4,12.5-8.5,18.8,10.4,1.6,14.8-.3,7.5-1.3-7.5-20.5-5.4-18-3.8-3.5,5.1-11,3.5-9.2,19,.2,6.2-5.6-15.7-18-60.3-1.5.3.2h0ZM1705.2,516.7h3.6l-1.6,3.9-2-3.9ZM220.6,532.7h2.4l3,5.8,3.8,6.2-6.8-1.2c-.3-.5-1.2-1.9-1.2-1.9l3.8,1.5-5.1-10.3h.1ZM224.2,532.8h6.1l-3.1,4.4-2.9-4.4h-.1ZM232.1,532.9l26.6.3,6,7.9-2.5,3.6-8.2,5.1-19.7-3.8-6-7.5,3.8-5.6h0ZM1675.1,533h4.3l.2,1.8-4.2-1.1-.3-.7ZM1680.4,533.2l14.6.4-4.9,3h0l-9.6-1.8v-1.7h0ZM260.4,533.2h8.5l-3,6-5.6-6h.1ZM206.5,537.4l-.2.3-.3-.3h.5ZM1718,552.4l-6.7,4.1,1.3-4.1h5.4,0ZM1598.4,560.4l-6.9,14,3.2-2.5-5.6,11,4.1-.8-7.6,12.3,5.3-1.4-8.6,13.7,6.8-1.3-10,11.6,9.1-4.4,2,5,4.9-3.3-1.1,6.6-1.9,6.5,3.1-1.4,2.2,1.9,1.2-2.2,4.5,1.9-3.1-10.3-.2-3.1,9.4,2.6-1.2-3,7,2.4-7.9-11.6,4.2,1.9-6.3-12.3,4.4,2.6-6.6-12.3s4.2,2.1,4,1.2c-.2-1-6.5-13.5-6.5-13.5l4,1.4-6.1-13.2h.2ZM561.3,564.5l-13.8,2.9-4.8,9.8,3.4,4.8,11.2-.3,4.5,9.9-8.9,10.6,7.7,5.4-3,18.3-12.6,12.3-5.9-2.7-2.6-6.7,12.9-.8,6.5-7.2-10.9-16.4-18.5,1.3-15.8,15.7,6.5,8.5,17.1-1,1.8,8.3,5.2,4.6-.4.4-2.7,33.3h16.3l-2.7-26.1,12.2-19.4h0l31-15.9,3-5.7,17.6-.2,6.8-9.2-15.1-19-33.4-2.6-9,10.7-3.4-6.4h5.1l4.8-6.3-10.2-10.8h.1ZM1686.9,566.2l2,8.5-9.7-2.6-2.7-5.8h10.4,0ZM1674.8,566.4l2.2,5.2-8.6-.6-3.6-4.5h10.1,0ZM1450,593.1l-3.1,10.4,2-2.4-3.4,12.7,2.5-1.7s-5.1,13.6-4.8,13.4c.3-.2,3.3-2.7,3.3-2.7l-4.8,14,3.5-2.4-5.7,12.6,5.4-3.5,3.1,2.4,4-4.3.5,8.5-2.9-2.5-38-1.2-10.1,8.9-2.9-6.4-.5-1.9,11-.8,7-6-12.2-12.9-20.1,1.5-16.9,13.1,7.3,6.7,3.8-.3-5,10.6,3.5-1.9-6.6,9.5,4.5-2.1-6.5,9.4,3.1-1.6-3.6,5.8,3.7-1-5.9,11.6,4.8-1.6-6.4,13.9,5.2-1.5-10,12.9,7.8-2.8-1.3,4.5,5.4-3.4.5,4.2,5.6-3.5.9.8-1,27.9h10.4l-2.9-28.3,6,4-.8-4.3,9.3,4.2-2.6-3.5s9,2.5,10.8,2.8c1.7.3-13.1-14.3-13.1-14.3l9,3.2-11-15,8.8,2.8-10.8-12.7,6.2,1.9-9.3-14,6.7,2.6-.3-.3,6.1,2.8h1.8l1.3,3.7,14.3,15.6-1,21,16.8-.4-3.7-26.8-6.8-4.5,16.8-8.5,1-1.5,20-.7,7.5-7.6-8.2-6.9-2.6-14.4,5.4,1.8,3.3-4.2,5.5.2-8.3-9.7h4l-6.5-10.1,4.7,1-7.3-10.4,3.7,1.2-7.6-11.3,3.1,1.8-6.5-8.4v.3h0ZM593.9,608.3l-1.4,4.4-5.7,3.3-2.7-7.5h9.9v-.2h0ZM580.5,608.5l2.5,8.8-18.3,7.2,1.6-15.8,14.2-.2ZM1343.4,627.8l-11.5.8-4.4,5.7,3.7,4h3.6l1.7,6.6-1.4,3.5-3.4-4.5-25.6-.9-7.5,6.1,4.2,7.6,6.5.2.8,2.1,12.1,5.9-1.6,8-29.9.2-7.5,13.5,3.6,8.7,13.5-.2,4.1,6.7h0l8.2,1.6,10.6,8.6.2,1.1s-3.1,27.6-3.6,30.4l12.4.4-1.4-27.6-2.6-11,10.8-14.5,1-3.9,9-8.1,12.9-.2,6-7.7-9.3-10.1-22-.8-9.1,11.3,4.1,7.7h9.1l-2.6,9.7-11.1,11.1-1.1-4.7v-.7h1.6l3.8-8.7-7.1-9.7,1.6-14.9,4.1-3.7,5,.2,3-5.8-1.7-2.2,1.6-4.5,2.2-7.1h8.2l4-4.4-8.9-6v.2h.1ZM1335.7,638.2h3l-1.4,4.5-1.7-4.5h0ZM1392.9,647.6l.3,1.2.9,2.7-5.6-1.8-1-1.8,5.4-.4h0ZM1385.9,648.1l1.8,3.1,7,2.2,2.1,6.3-6.8,6.1-5.6-6.5,2.7.2-6.6-10.9,5.4-.4h0ZM1310.4,656.8h3.6l.2,2.1-3.5-1.3-.3-.8h0ZM1314.8,657l12.2.5-4.1,3.5h0l-8-2v-1.9h0ZM1435.8,671l-.2.4-6.5,2.8-1.5-2.9,8.2-.3ZM1423.4,671.4l1.7,3.9-7.9,2.4-7.7-5.1-.4-.8,14.2-.5h.1ZM1062.9,675.8l-51.3,1.5-13.4,18,5.3,5.6,16.2-.2,3,9.2,4.4,11-3.2,3.5-4.6,18-6.4,20.5,6.4,1.3,12.6.3,8.9-1.6-7.2-18.8,2.9-12.5,6.1-8,16.3-7.5,15.2-4.7,3.5-6.7h10.7l5-5.8-11-7.9-7.8.5-11.5-15.8h0ZM1346.5,678.9l-5.6,4.7,1.1-4.7h4.5ZM1273.4,679.5l-7.2,11.2,3.4-2.7-8.4,14.9,4.7-2-8,13.7,5.6-2-7,13.2,4.9-.6-9.3,13.1,6.7-1.1,4.4,4.5,6.4-3.1-3.2,29.9,9,.2-.4-30.3,5.3,4.4,3.7-3.5,6.9,3.3-8.1-14.2,4.5,2.2-7.1-16s4,2.5,4.3,2.7-7.1-15.3-7.1-15.3l3.2,1.7-5.3-14.6,2.7,2.4-4.6-12h0ZM1320.3,694.7l1.7,9.7-8.2-3-2.2-6.6,8.7-.2h0ZM1310.2,694.9l1.8,6-7.2-.7-3-5.1,8.5-.2h-.1ZM1062.8,700.1l4,4.6h8.4l-2.6,3.8-17.6,3.6,3.2-6.2,2.5-5.8h2.1ZM1059.7,700.2l-2.5,4.4-2.7-4.4h5.2ZM1053,700.3l3.2,5.6-5.1,7.5-16.8,3.8-7-5.1-2.1-3.6,5.1-7.9,22.6-.3h.1ZM1028.9,700.6l-4.7,6-2.5-5.9h7.3-.1Z"/>
    </g>
    <g id="layer6" inkscape:groupmode="layer" inkscape:label="TREES HIGHLIGHT">
      <path id="path44" class="st9" d="M271.2,533.3l-9.3,20.2.7-.2,5.1-11,3.5-9h0ZM262.7,553.5l3,3.6,5.1,18.4,7.3,21.5,1-1.5-7.1-19.5-5.6-18.8-3.7-3.7h0ZM547.5,567.5l-4.8,9.7,3.4,4.8,10.9-.3-10.7-.3-3-4.3,4.4-9.6v-.2l-.2.2h0ZM544.8,604.4l-18.3,1.3-15.4,15.2,6,9,31.9-2.1-31.6,1.2-5.1-7.8,14.5-14.7,17.9-2h0Z"/>
    </g>
    <g id="layer7" inkscape:groupmode="layer" inkscape:label="HOUSE">
      <path id="path94" class="st12" d="M84.4,460l-5.7.7,2.1,8.1-1.6,6,3,8.7-14.8,11.1h12.3l4.7,36.3,36.3-1.6,4.7-40.2,10.8-.3-35.8-18.9-15.4,11.5-2.7-7.4,2.1-6.3v-7.6h0ZM1820.9,513.8l-12.8,14.4-11.3,4.1.6-4.3-1.4-6.3-6.7-.8,1.8,5.9-1.4,8-24.1,8.8,10.8.3,1.5,47.5,57.3-4.9,3-43.9,7.3-.6-24.6-28.3h0ZM473.7,526.9l-20.8,36.2,6.5-.6,1.7,29.3-19,1.2-16.1,34.5,4.8-.6.8,44.8,55.9-.6,1.2-109.2h4.6l-8.6-15.4,2.1-7.9v-5.7l-4.5.3.2,5.1-.9,2.5-7.8-14h-.1ZM310.6,528l1.5,4.9-1.3,7-26.7.9-13.2,21.8,8.9.3,1.2,39.1,49-1.3.8-39,6-.5-14.2-21.8-6.2.2.9-5.9-1.2-5.2-5.5-.6h0ZM1658.5,547.2l1.5,4.9-1.3,7-26.7.9-13.2,21.8,8.9.3,1.2,39.1,49-1.3.8-39,6-.5-14.2-21.8-6.2.2.9-5.9-1.2-5.2-5.5-.6h0ZM1513.2,560.3l-5.7.7,2.1,8.1-1.6,6,3,8.7-14.8,11.1h12.3l4.7,36.3,36.3-1.6,4.7-40.2,10.8-.3-35.8-18.9-15.4,11.5-2.7-7.4,2.1-6.3v-7.6h0ZM986.3,590.5l-24.9,41.6,7.7-.7,2.1,33.7-22.7,1.3-19.2,39.6,5.8-.7,1,51.5,66.7-.7,1.4-125.6h5.5l-10.2-17.6,2.5-9v-6.6l-5.4.3.3,5.8-1.1,2.9-9.3-16.1-.2.3h0ZM872.7,677.9l1.5,4.9-1.3,7-26.7.9-10,16.4-15.7-4.7-1.7-8,2.1-5.9-8,.8-1.7,6.3.8,4.3-13.6-4.1-15.4-14.4-29.5,28.3,8.8.6,3.7,43.9,68.9,4.9,1.8-46.4,5.3.2,1.2,39.1,49-1.3.8-39,6-.5-14.2-21.8-6.2.2.9-5.9-1.2-5.2-5.5-.6h0ZM637.2,685.7l-5.7.7,2.1,8.1-1.6,6,3,8.7-14.8,11.1h12.3l4.7,36.3,36.3-1.6,4.7-40.2,10.8-.3-35.8-18.9-15.4,11.5-2.7-7.4,2.1-6.3v-7.6h0ZM1194.8,694.9l-12.8,14.4-11.3,4.1.6-4.3-1.4-6.3-6.7-.8,1.8,5.9-1.4,8-24.1,8.8,10.8.3,1.5,47.5,57.3-4.9,3-43.9,7.3-.6-24.6-28.3h0Z"/>
    </g>
    <g id="layer8" inkscape:groupmode="layer" inkscape:label="HOUSE LIGHTS OFF">
      <path id="path102" class="st14" d="M119.3,496.1h-5.6l-.4,5.5h5.5c0-.1.5-5.5.5-5.5ZM112.3,496.1h-6.5v5.7l6.1-.2.4-5.5ZM118.6,502.9h-5.4l-.4,5.3,5.3-.2.5-5.1h0ZM111.8,503h-6.1v5.5l5.8-.2.4-5.3h-.1ZM118,509.3l-5.3.3-.3,4.4,5.2-.2s.4-4.5.4-4.5ZM111.4,509.7l-5.7.3v4.2l5.4-.2s.3-4.3.3-4.3ZM299.5,567.6l-5.5.2v4.7h5.5v-4.9ZM292.9,567.8l-5.7.2v4.6h5.7v-4.8ZM299.5,573v.5c-.1,0-5.5.2-5.5.2v4h5.5v-4.6h0ZM292.9,573.6l-5.6.2v3.9h5.6v-4.1h0ZM299.5,578.6l-5.4.2v4.4h5.4v-4.6h0ZM292.9,578.8l-5.5.2v4.4h5.5v-4.5h0ZM1647.5,586.8l-5.5.2v4.7h5.5v-4.9ZM1640.8,587l-5.7.2v4.6h5.7v-4.8ZM1647.4,592.2v.5l-5.5.2v4h5.5v-4.6h0ZM1640.8,592.9l-5.6.2v3.9h5.6v-4.1h0ZM1548.1,596.4h-5.6l-.4,5.5h5.5l.5-5.5ZM1541.1,596.4h-6.5v5.7l6.1-.2.4-5.5ZM1647.4,597.8l-5.4.2v4.4h5.4v-4.6h0ZM1640.8,598l-5.5.2v4.4h5.5v-4.5h0ZM482.2,601.3l-5.9.5v4.8l6.1-.4v-5h-.2ZM474.9,601.9l-6.4.5v4.7l6.4-.4v-4.8ZM1547.4,603.2h-5.4l-.4,5.3,5.3-.2.5-5.1ZM1540.6,603.3h-6.1v5.5l5.8-.2.4-5.3h-.1ZM482.4,607.7l-6.1.4v5.5l6.2-.5v-5.4h-.1ZM474.9,608.2l-6.4.4v5.6l6.4-.5v-5.5ZM1546.8,609.7l-5.3.3-.3,4.4,5.2-.2.4-4.5h0ZM1540.1,610l-5.7.3v4.2l5.4-.2.3-4.3h0ZM996.5,676l-7.1.6v5.6l7.3-.4-.2-5.7h0ZM987.7,676.7l-7.6.6v5.4l7.7-.4v-5.5h-.1ZM996.7,683.4l-7.3.5v6.4l7.4-.6-.2-6.3h0ZM987.7,684l-7.6.5v6.4l7.6-.6v-6.4h0ZM861.6,717.5l-5.5.2v4.7h5.5v-4.9ZM855,717.7l-5.7.2v4.6h5.7v-4.8ZM672.1,721.8h-5.6l-.4,5.5h5.5l.5-5.5ZM665.1,721.8h-6.5v5.7l6.1-.2.4-5.5ZM861.6,722.9v.5l-5.5.2v4h5.4v-4.6h0ZM855,723.6l-5.6.2v3.9h5.6v-4.1h0ZM861.6,728.5l-5.4.2v4.4h5.4v-4.5h0ZM671.4,728.6h-5.4l-.4,5.3,5.3-.2.5-5.1h0ZM664.6,728.7h-6.1v5.5l5.8-.2.4-5.3h-.1ZM855,728.7l-5.5.2v4.4h5.5v-4.5h0ZM670.8,735l-5.3.3-.3,4.4,5.2-.2.4-4.5h0ZM664.1,735.4l-5.7.3v4.2l5.4-.2.3-4.3Z"/>
    </g>
    <g id="g3" inkscape:groupmode="layer" inkscape:label="HOUSE LIGHTS ON">
      <path id="path77" class="st11" d="M98.9,496.4l-6.1.5.5,5.5,5.8-.3s-.2-5.7-.2-5.7ZM91.5,497l-5.2.4.6,5.4,5.1-.3-.5-5.5ZM99.1,503.3l-5.7.4.5,5.3,5.4-.2-.2-5.4h0ZM92.1,503.8l-5.1.4.6,5.1,5-.2-.5-5.2h0ZM99.3,510.2l-5.4.2.4,4.3,5.1-.3v-4.2h0ZM92.6,510.4l-5,.2.5,4.4,4.9-.3-.4-4.3h0ZM474.5,545.4l.2,5.6,4.6-.3c-.3-3-2.3-5.2-4.8-5.3h0ZM473.7,545.5c-2.5.4-4.3,2.9-4.4,5.9l4.5-.3v-5.6h-.1ZM1829.6,548.4l-6.7.5v5.7l6.7-.4v-5.8ZM1821.5,549l-6.9.5v5.6l7-.4v-5.7h0ZM1802.3,550.4l-6.3.5v5.1l6.4-.4v-5.3h0ZM1794.5,551.1l-6.8.6v4.9l6.8-.4v-5.1ZM479.3,551.6l-4.6.3.2,5.7c2.5-.4,4.4-2.9,4.4-6ZM473.8,551.9l-4.5.3c.3,2.9,2.2,5.2,4.7,5.4l-.2-5.7ZM1829.6,555v.6l-6.7.5v4.8l6.7-.4v-5.5h0ZM1821.6,556.1l-6.8.5v4.7l6.8-.4v-4.8ZM1802.5,557.2l-6.4.4v5.9l6.6-.5-.2-5.8h0ZM1794.5,557.8l-6.7.5v6l6.8-.5v-5.9h-.1ZM1829.6,561.8l-6.6.5v5.3l6.6-.4v-5.4h0ZM1821.6,562.4l-6.7.5v5.3l6.7-.4v-5.3h0ZM322.8,566.5l-5.5.4v4.7l5.5-.3v-4.8h0ZM316.2,567l-5.7.4v4.6c.1,0,5.7-.3,5.7-.3v-4.7ZM481.2,567.8l-3.5.2v18.3c.1,0,3.8-.2,3.8-.2l-.3-18.3ZM476.3,568l-3.7.2v18.3c.1,0,3.8-.2,3.8-.2v-18.3h0ZM471.2,568.2l-3.8.2.2,18.3,3.7-.2v-18.3h-.1ZM322.8,571.9v.5c-.1,0-5.5.4-5.5.4v4l5.5-.3v-4.5h0ZM316.2,572.8l-5.6.4v3.9l5.6-.3v-4h0ZM322.8,577.5l-5.5.4v4.4l5.5-.3v-4.4h0ZM316.3,578l-5.5.4v4.4c.1,0,5.5-.3,5.5-.3v-4.4h0ZM1670.8,585.7l-5.5.4v4.7l5.5-.3v-4.8h0ZM1664.1,586.2l-5.7.4v4.6l5.7-.3v-4.7ZM1670.8,591.1v.5l-5.5.4v4l5.5-.3v-4.5h0ZM1664.2,592.1l-5.6.4v3.9l5.6-.3v-4h0ZM1527.7,596.7l-6.1.5.5,5.5,5.8-.3-.2-5.7h0ZM1670.8,596.8l-5.5.4v4.4l5.5-.3v-4.4h0ZM1664.2,597.2l-5.5.4v4.4l5.5-.3v-4.4h0ZM1520.3,597.3l-5.2.4.6,5.4,5.1-.3-.5-5.5h0ZM1527.9,603.7l-5.7.4.5,5.3,5.4-.2-.2-5.4h0ZM1520.8,604.1l-5.1.4.5,5.1,5-.2-.4-5.2h0ZM1528.1,610.5l-5.4.2.4,4.3,5.1-.3v-4.2h0ZM1521.4,610.8l-5,.2.5,4.4,4.9-.3-.4-4.3h0ZM987.2,611.8l.2,6.4,5.5-.3c-.4-3.4-2.8-6-5.7-6.1h0ZM986.2,611.8c-2.9.4-5.1,3.3-5.2,6.8l5.4-.3-.2-6.4h0ZM993,618.9l-5.5.3.2,6.6c3-.4,5.3-3.4,5.3-6.9h0ZM986.4,619.3l-5.4.3c.3,3.4,2.7,6,5.6,6.2l-.2-6.5h0ZM453.6,633.9l-6.3.4v5.4l6.3-.4v-5.5h0ZM446,634.5l-6.5.5v5.3c.1,0,6.6-.4,6.6-.4v-5.4h-.1ZM482.4,635.2l-5.9.5v4.8l6.1-.4v-5h-.2ZM475,635.8l-6.4.5v4.7l6.4-.4v-4.8ZM995.2,637.5l-4.2.2.2,21.1,4.4-.2-.4-21.1ZM989.3,637.7l-4.4.2.2,21,4.4-.2-.2-21.1h0ZM983.3,638l-4.5.2.2,21,4.5-.2-.2-21ZM453.6,640.1v.5c-.1,0-6.3.4-6.3.4v4.6l6.3-.4v-5.2h0ZM446,641.2l-6.4.4v4.5c.1,0,6.4-.4,6.4-.4v-4.5ZM482.6,641.6l-6.1.4v5.5l6.2-.5v-5.4h-.1ZM475.1,642.1l-6.4.4v5.6l6.4-.5v-5.5ZM453.6,646.6l-6.2.4v5l6.2-.4v-5.1h0ZM446.1,647.1l-6.3.4v5c.1,0,6.3-.4,6.3-.4v-5ZM962.3,713.5l-7.6.5v6.2l7.6-.4v-6.3ZM953.2,714.1l-7.8.5.2,6.1,7.7-.4v-6.2h-.1ZM996.7,714.9l-7.1.6v5.6l7.3-.4-.2-5.7h0ZM987.9,715.6l-7.6.6v5.4l7.7-.4v-5.5h-.1ZM772.6,715.9v5.8l8,.4v-5.7l-8-.5ZM884.9,716.4l-5.5.4v4.7l5.5-.3v-4.8h0ZM782.3,716.5v5.7l8.2.4.2-5.6-8.3-.5h-.1ZM878.3,716.9l-5.7.4v4.6l5.7-.3v-4.7ZM805.4,717.9l-.2,5.3,7.7.4v-5.1l-7.5-.5h0ZM814.8,718.6v5.1l8.1.4v-4.9l-8.1-.6ZM962.3,720.6v.6l-7.5.5v5.2l7.5-.4v-5.9h0ZM884.9,721.8v.5l-5.5.4v4l5.5-.3v-4.5h0ZM953.2,721.8l-7.7.5v5.1l7.7-.4v-5.2h0ZM651.7,722.1l-6.1.5.5,5.5,5.8-.3-.2-5.7ZM996.9,722.3l-7.2.5v6.4l7.4-.6-.2-6.3h0ZM772.6,722.5v5.5l8,.4v-4.8l-7.8-.5-.2-.6h0ZM644.3,722.7l-5.2.4.6,5.4,5.1-.3-.5-5.5h0ZM878.3,722.8l-5.6.4v3.9l5.6-.3v-4h0ZM987.9,722.9l-7.6.5v6.4l7.6-.6v-6.4h0ZM782.3,723.6v4.8l8,.4v-4.7l-8-.5ZM805.2,724.7l-.2,5.8,7.9.5v-5.9l-7.7-.4h0ZM814.8,725.3v5.9l8,.5v-6l-8-.5h0ZM884.9,727.5l-5.5.4v4.4l5.5-.3v-4.4h0ZM878.4,727.9l-5.5.4v4.4l5.5-.3v-4.4h0ZM962.3,728l-7.4.5v5.8l7.4-.4v-5.8h0ZM953.3,728.6l-7.5.5v5.7l7.6-.4v-5.8h0ZM651.9,729l-5.7.4.5,5.3,5.4-.2-.2-5.4h0ZM772.6,729.3v5.4l7.9.4v-5.3l-7.9-.5h0ZM1203.4,729.5l-6.7.5v5.7l6.7-.4v-5.8ZM644.9,729.5l-5.1.4.5,5.1,5-.2-.5-5.2h0ZM782.2,729.9v5.3l7.9.4.2-5.3-8-.5h-.1ZM1195.4,730.1l-6.9.5v5.6l7-.4v-5.7h0ZM1176.1,731.5l-6.3.5v5.1l6.4-.4v-5.3h0ZM1168.3,732.2l-6.8.6v4.9l6.8-.4v-5.1ZM652.1,735.9l-5.4.2.4,4.3,5.1-.3v-4.2h0ZM1203.4,736.1v.6l-6.7.5v4.8l6.7-.4v-5.5h0ZM645.4,736.1l-5,.2.5,4.4,4.9-.3-.4-4.3h0ZM1195.4,737.2l-6.8.5v4.7l6.8-.4v-4.8ZM1176.3,738.3l-6.4.4v5.9l6.6-.5-.2-5.8h0ZM1168.4,738.9l-6.7.5v6l6.8-.5v-5.9h-.1ZM1203.4,742.9l-6.6.5v5.3l6.6-.4v-5.4h0ZM1195.5,743.5l-6.7.5v5.3l6.7-.4v-5.3h0Z"/>
    </g>
    <g id="layer12" inkscape:groupmode="layer" inkscape:label="LAMP HIGHLIGHTS">
      <path id="path85" class="st6" d="M1074.4,691.8l-6.8,6.6-64.2,2.4,65-.8,6.1-8.1h0ZM1092.9,699.1l-6,4.2-19.9,1.4h10.3l-.8.2-3.7,5.9-14.5,4.4-17.1,7.4-6.9,8.5-3.2,13.2,4.2,17.9,4.7-.5-6.9-18.1,3-11.7,6.3-8.6,16.4-7.4,14.9-4.4,3.9-6.7h10.5l4.8-5.7h0ZM1060.8,700.1l-3.6,6.3-3.6,6.3,1.2-.4,3-5.9,2.9-6.3h0ZM1030.3,700.4l-5.4,7.3.4.6,5-7.9h0ZM1021,700.6l3.2,8.3,2.5,4.5,6.3,5.6,2.9-1-8.6-5.9-2.5-3.9-3.2-7.7h-.6Z"/>
      <path id="path100" class="st1" d="M1163.2,702.1l1.7,5.9-1.7,9.6h0l2.8-9.8-2.4-5.6h-.5,0ZM1151.7,724.3l-12,.3,10.5.5,1.2,37,1.9.8-1.5-38.7h0Z"/>
    </g>
    <g id="layer11" inkscape:groupmode="layer" inkscape:label="ROCK">
      <path id="path20-3-0" class="st12" d="M128.5,525.7l-5,4.6,2.9,2.9h14.4l3.3-2.8-7.7-4.6h-7.9ZM241.8,586.2l-5.7,1.2-3.2,3,2.1,2.6h8.6l2.4-4-4.2-2.9h0ZM1480.7,622.5l-5,4.7,2.9,2.9,14.4-.2,3.3-2.7-7.7-4.6h-7.9ZM517.4,663.8l-1.8,1.6-3.3,2.8,2.8,3,14.4.5h.2l.3.3h8.6l2.4-4-4.2-2.9-2.3.5-3.4.6-.9,1h0l-4.6-3-7.9-.5-.3.3.3-.3h-.3ZM393,664.8h0l-4,1.9,1.2,3.2,8.2,2.5,3.5-2.9-3.1-4.1h-.1l-5.4-.6h-.3ZM1301.3,738l-7.7,1.8-3.8,5.7,3.5,2.1,14-3.6,2.6-3.4-8.6-2.7h0ZM901.3,743.3l-5.7,1.2-3.2,3,2.1,2.6h8.6l2.4-4-4.2-2.9h0ZM680,745l-5,4.6,2.9,2.9h14.4l3.3-2.8-7.7-4.6h-7.9ZM615.6,746.4l-5.4.4.4,4.6,8.1,4.6,3.3-1.2-1.6-4.3-4.8-4h0ZM1268.8,747.8l-5.7,1.2-3.2,3,2.1,2.6h8.6l2.4-4-4.2-2.9h0ZM1047.8,754.5l-5.7,1.2-3.2,3,2.1,2.6h8.6l2.4-4-4.2-2.9h0ZM1223.4,758.5l-5,1.1-4.2,4.4,2.5,1.6,9.2-1.6,1.4-2.6-3.9-2.9Z"/>
    </g>
    <g id="g187" inkscape:groupmode="layer" inkscape:label="ROCK HIGHLIGHT">
      <path id="path84" class="st6" d="M128.5,525.7l-5.1,4.6,2.8,3-1.7-2.9,4.2-4,7.6-.6h-7.9,0ZM1480.8,622.4l7.8.7,6.6,4.5-2.5,2.6,4.1-2.9-8-4.8h-8ZM1047.9,754.4l-5.7,1.2,5-.5,3.8,2.7-1.2,3h0l2.4-3.2-4.3-3.1h0ZM1223.3,758.5l-5,1.1-4.1,4.4,4.6-3.8,4.5-1.1,4,2.3-3.9-3h0Z"/>
    </g>
    <g id="g4" inkscape:groupmode="layer" inkscape:label="TREES FRONT">
      <path id="path9131-1-7-7-5" class="st12" d="M64.3,463.2l-5.1,13.6,3.9-1.7s-5.4,12.9-5.6,13.9c0,1,3.9-1.4,3.9-1.4l-5.7,12.7,4.2-2.9-5.5,12.7,4.1-2.2-7,12.1,6.8-2.9-1,3.1,9.2-3.2v3.1l-2.4,10.5,4.4-2.2,1.3,2.1,2-2.1,3.2,1.2-2.3-6.3-1.5-6.5,5,3,1.6-5.1,9.3,3.8-10.7-10.9,6.8.9-9.4-13.1,5.4,1.1-8.3-11.8,4.1.5-6.3-10.6,3.4,2.3-7.8-13.5v-.2h0ZM147.6,463.8l-7.8,13.5,3.4-2.3-6.3,10.6,4.2-.5-8.4,11.8,5.4-1.1-9.5,13.1,6.8-.9-10.7,10.9,9.4-3.8,1.7,5.1,5.1-3-1.5,6.5-2.3,6.3,3.2-1.2,2,2.1,1.3-2.1,4.4,2.2-2.4-10.5v-3.1l9.3,3.2-1-3.1,6.8,2.9-7.1-12.1,4.1,2.2-5.5-12.7,4.2,2.9-5.7-12.7s4.1,2.4,3.9,1.4c-.1-1-5.6-13.9-5.6-13.9l3.9,1.7-5.2-13.6v.2h0ZM1754.5,506.5l-6,12.9,3.2-2-5.7,9.3,4.1-2.1-5.7,9.2,2.8-1.7-3.1,5.7,3.3-1.2-5,11.3,4.3-1.7-5.3,13.5,4.5-1.7-8.8,12.7,7-3.1-1.2,4.3,4.9-3.6.5,4.1,5.1-3.6.9.7-.3,26.4,9.4-.4-3.2-26.8,5.6,3.4-.9-4.1,8.4,3.4-2.3-3.1s8,2,9.8,2.1-12.1-12.9-12.1-12.9l8.3,2.6-10.3-13.8,8.1,2.1-10-11.5,5.7,1.4-8.6-12.8,6.2,2.2-8.4-9.5h2.5l-7.6-12v.3h-.1ZM1856.9,510.6l-20.3,1.1-17.3,12.7,7.2,6.9,11.8-.5,1.8,3.1,7,2.4,2,6.3-8.7,7.3,10.8,5.3h1.8l1.2,3.7,14,15.9-1.5,21h16.9l-3-26.8-6.8-4.7,17.2-8.1,1.1-1.4,20.1-.2,7.8-7.4-17.3-15.3-38.2-2.1-10.3,8.7-2.8-6.4-.5-1.9,11.1-.5,7.2-5.8-11.9-13.2h-.4,0ZM345.3,516.3l-7,12.3h2.3l-7.8,9.6,5.7-2.2-8,13,5.3-1.4-9.3,11.7,7.5-2.2-9.5,14.1,7.7-2.7s-12.8,13.3-11.2,13.2c1.6,0,9-2.2,9-2.2l-2.1,3.2,7.8-3.5-.8,4.2,5.1-3.5-2.9,27.3,8.8.4-.3-26.8.8-.8,4.7,3.6.5-4.2,4.5,3.6-1.1-4.4,6.5,3.2-8.2-12.9,4.2,1.7-4.9-13.7,4,1.7-4.7-11.5,3,1.2-2.9-5.8,2.6,1.7-5.3-9.3,3.8,2.2-5.2-9.5,2.9,2.1-5.5-13.1v-.3h0ZM1845.3,530.4l.3,1.2.8,2.7-5.6-1.9-1-1.8,5.4-.2h0ZM1559.4,534.7l-9.3,9.3,4.4,5.3h4.7l-3.1,5.6-8.2-9.3-30.3,2.3-13.7,16.4,6.2,7.9,16,.2,2.7,5,28.2,13.8h0l11.1,16.8-2.5,22.5h14.8l-2.4-28.7-.3-.3,4.8-4,1.6-7.2,15.6.9,5.9-7.4-14.4-13.6-16.9-1.1-9.9,14.2,5.9,6.2,11.7.7-2.4,5.8-5.4,2.4-11.5-10.6-2.8-15.9,7-4.6-8-9.1,4.1-8.5,10.2.2,3.1-4.1-4.4-8.4-12.5-2.5v-.2h0ZM1710.5,541.7l-6.7,14,3.1-2.4-5.4,10.9,4-.7-7.3,12.2,5.2-1.3-8.3,13.6,6.6-1.3-9.6,11.5,8.8-4.3,2,5,4.7-3.2-1,6.6-1.8,6.4,3-1.4,2.1,1.9,1.2-2.1,4.4,2-3.1-10.3-.2-3.1,9.2,2.7-1.2-3,6.8,2.5-7.7-11.8,4.1,1.9-6.2-12.4,4.3,2.7-6.4-12.4s4.1,2.2,3.9,1.2-6.4-13.6-6.4-13.6l3.9,1.4-5.9-13.3h0ZM1888,554.8l-.2.4-6.6,2.6-1.5-2.9h8.3,0ZM1875.4,555l1.6,3.9-8,2.2-7.6-5.3-.3-.8h14.3ZM1615.3,556.3l-5.1,9.5,2.5-1.4-4.7,6.8,3.2-1.4-4.7,6.7,2.2-1.1-2.6,4.2,2.5-.8-4.3,8.3,3.4-1.1-4.6,10,3.5-1.1-7.2,9.3,5.4-2.1-1.1,3.2,3.8-2.5.2,3.2,4-2.5.6.6-1.3,19.9h7.2l-1.3-20.3,4.1,2.8-.5-3.1,6.2,2.9-1.6-2.4s6,1.8,7.3,2-8.6-10.3-8.6-10.3l6.2,2.3-7.2-10.9,6,1.9-7.1-9.1,4.2,1.3-6-10,4.6,1.9-6-7.5,1.9.2-5.2-9.5h0ZM1529.8,572.6h9l-2.4,6.6-5.2-2.8-1.3-3.8h0ZM1541.9,572.7l12.9.2,1.5,13.7-16.7-6.2,2.3-7.6h0ZM425.2,588.4l-10.4,13.2,6.2,5.8,9.6.5-.4,1.9-2.4,6.4-9-8.7-33.3,2.1-15.1,15.3,6.8,7.4,17.5.2.9,1.4,14.9,8.1-5.9,4.7-2.6,26.9h14.7l-1.3-21.1,12.2-15.9,1-3.8h1.6l9.4-5.3-7.6-7.3,1.7-6.3,6.1-2.4,1.5-3.1,10.3.5,6.2-6.9-15.1-12.7-17.7-1.1.2.2h0ZM508.6,592.6l-7.9,11h2.6l-8.7,8.6,6.4-2-9,11.7,5.9-1.3-10.4,10.5,8.4-1.9-10.7,12.6,8.6-2.4s-14.4,11.9-12.6,11.8,10.2-1.9,10.2-1.9l-2.4,2.8,8.7-3.1-.9,3.7,5.8-3.1-3.3,24.4,9.8.3-.3-24,.9-.7,5.3,3.3.5-3.8,5.1,3.2-1.2-3.9,7.3,2.8-9.2-11.6,4.7,1.5-5.5-12.3,4.5,1.5-5.2-10.3,3.4,1.1-3.2-5.2,2.9,1.5-5.9-8.4,4.3,1.9-5.9-8.5,3.3,1.8-6.2-11.7h0ZM435.3,608.2l4.7.2-.8,1.8-4.8,1.9.7-2.7.2-1.2h0ZM398.2,632.6h7.2l-1.3,3-5.7-2.6v-.4h-.2ZM409.1,632.7h12.5l-.3.9-6.6,5.3-7-2.3,1.4-3.9ZM693.6,646l-11.3,7.5,5.5,10.7,7.2.7,1.4,3.2,15.8,6.9-2.7,7.8-39.8-2.5-10.8,12.7,4.2,8.9,18,1,5,7h0l10.8,2.3,13.6,9.5.2,1.1s-5.9,27-6.7,29.8l16.5,1.5-.2-27.4-3.4-10.6,15.9-13.9,1.6-3.7,12.5-7.2,17.2,1,8.4-7.1-11.8-10.9-29.3-2.8-12.8,10.4,4.9,8,12.1.7-4,9.5-16.5,10.6-1.5-4.6-.2-1.5,3.7.2,5.7-8.3-10.2-11.9,4.9-17.6,16.5,1.7,4.9-7.6-8.3-11.8-36.9-3.7v.4h-.1ZM913.6,646.8l-9.3,10.4,4.4,5.9h4.7l-3.1,6.2-8.2-10.3-30.5,2.5-13.8,18.3,6.2,8.8,16.1.2,2.7,5.5,28.4,15.3h0l11.1,18.7-2.5,25.1h14.9l-2.4-32-.3-.3,4.8-4.4,1.6-8,15.7,1,6-8.2-14.5-15.1-17-1.3-10,15.8,6,6.9,11.8.8-2.4,6.5-5.4,2.6-11.6-11.8-2.8-17.6,7-5.2-8.1-10.2,4.2-9.5,10.3.3,3.2-4.6-4.4-9.4-12.6-2.8h-.2ZM696.5,665.1l5.1.5.2,2.9-4.6-1.6-.7-1.9h0ZM702.7,665.8l12.2,1.3-1.5,4.4-10.6-2.8v-2.8h-.1ZM883.8,688.9h9l-2.5,7.4-5.2-3.2-1.3-4.2ZM896,689.1l13,.2,1.5,15.2-16.8-6.9,2.3-8.5ZM737.4,690.9l6,.4-7.8,4.2,1.7-4.5h0ZM1241.1,694.8l-5.7,14.6,3-2.7-4.6,11.4,4-1.1-6.5,12.9,5.2-1.9-7.4,14.4,6.6-1.9-8.9,12.4,8.7-5.2,2.4,4.8,4.6-3.7-.5,6.7-1.4,6.6,3-1.7,2.3,1.7,1-2.2,4.7,1.5-4-10-.4-3.1,9.6,1.7-1.5-2.9,7.2,1.8-8.8-10.9,4.4,1.5-7.4-11.7,4.6,2.2-7.6-11.7s4.4,1.8,4.1.8c-.3-.9-7.7-12.9-7.7-12.9l4.1,1-7.2-12.7v.3h.1ZM683,703.2l11.3.6,2.1,6.1-9.6-1.4-3.7-5.3h0ZM696.1,703.9l11.6.6,1.6,9.8-10.7-3.7-2.6-6.7h.1Z"/>
    </g>
    <g id="g5" inkscape:groupmode="layer" inkscape:label="TREES HIGHLIGHT FRONT">
      <path id="path242-3-3-6" class="st8" d="M64.4,463.5l6.2,12.1,1.3.9-7.5-13ZM147.5,464.1l-7.6,13,1.3-.9,6.2-12.1h.1ZM68.7,474.7l4.8,10.1h1.4l-6.3-10.1h0ZM143.2,475.3l-6.3,10.2h1.5l4.8-10.2ZM71,484.5l6.8,11.4,1.3.4s-8.1-11.8-8.1-11.8ZM140.9,485.1l-8.1,11.8,1.3-.4,6.8-11.4ZM73.8,495.4l7.7,12.7h1.4c0-.1-9.2-12.7-9.2-12.7h0ZM138,496l-9.2,12.6h1.4c0,.1,7.8-12.6,7.8-12.6ZM1754.5,506.5l6.2,12h1.5l-7.7-12ZM76.4,507.4l8.7,10.3,1.8.7-10.5-11h0ZM135.5,508l-10.5,11,1.8-.7,8.7-10.3ZM77.7,514.6l-2.8,2,1.2,3.1s1.6-5.1,1.6-5.1ZM134.1,515.2l1.6,5.1,1.2-3.1-2.8-2ZM345.4,516.3l-7.1,12.3h1.4l5.8-12.3h0ZM71.3,518.1l.2,4.7,1.5,6.2,1.9,1.2-2.4-6.8-1.3-5.2h.1ZM1759.7,518.6l6.7,8.9,1.7.6-8.4-9.5h0ZM140.6,518.7l-1.3,5.2-2.4,6.8,1.9-1.2,1.6-6.2.2-4.7h0ZM1819.3,524.4l7.1,6.9,11.9-.6,1.7,3.1,7.1,2.4,2,6.4-8.6,7.3,10.6,5.3-7.9-5.6,21.1-19.7-14.5,12.3-1.7-6h0l-7.8-2.7-1.9-2.5,7.1-.3v1.1l1,2.9.7.2-1.3-3.6-.4-.7,16.2-.8h-34.3l-8-5.3h0ZM1761.8,525.8l7.2,12.5,1.5.4-8.7-12.9ZM340.6,528.6l-7.8,9.6,1.5-.6,6.3-9ZM338.6,535.9l-8,13.1,1.4-.4,6.6-12.7h0ZM1764.9,537.3l8,10.9,1.9.5-9.9-11.4ZM1710.4,542l-6.4,13.4,1.2-1,5.2-12.4h0ZM1550.1,544l4.3,5.3h4.7l-3.1,5.7.6.8,3.3-6.3,13.2.3-18.2-1.4-4.8-4.4h0ZM1766.8,546.5l7.5,13,3,1-10.5-14ZM335.7,547.7l-9.2,11.6,1.8-.5,7.4-11.1h0ZM1706.9,553.4l-5.4,10.5h1.4l4-10.5ZM1887.9,554.8l-.2.4-6.5,2.5.6.3,6.3-2.6.5-.6h-.7ZM1875.4,554.9l1.7,4-8,2.1.6.5,8.1-2.4-1.6-4.1h-.8,0ZM1853.6,555.2h-.8l1.3,3.9,14,15.8-1.4,18.9,3.6,2.1-.3-22.1-14.9-15.1-1.4-3.5h0ZM1615.3,556.4l4.2,9.3h1.1l-5.3-9.3h0ZM334,557l-9.7,14.2,2.8-1,6.9-13.2h0ZM1769.4,558.2l9.6,12.1,3.1.6-12.6-12.7h0ZM1705.4,563.3l-7.1,12.3,1.2-.5,5.8-11.8h0ZM1503.8,564.4l6.3,7.6,29.2.5h-.6l-2.2,6.6.8.3,2.6-6.8,15.2.3,1.4,13.7,1.5,1-2.1-14.7h1.7l9-5.2-9.1,3.9-47.2-.8-6.4-6.3h-.1ZM1768.3,565l4,6.3.9.3-4.9-6.6ZM1618.7,565.7l4.7,7,1.2.5-6-7.5h.1ZM1764.4,565.7l.8,6.2.4.2-1.2-6.5h0ZM1760.1,568.9l-.7,1.1,1.9,27.1,2.1-1.6-3.3-26.6ZM331.6,569l-11.7,12.9,2.9-.7,8.9-12.3h0ZM1574.1,569.3l-9.8,14,5.9,6.3,11.7.7-2.3,5.7-5.4,2.5.6.4,5.6-2.7,2.2-5.9,16.7,1-28.3-2.9-4.1-5.6,7.1-13.5h.1ZM1620.1,571.2l4.9,9.7,1.1.3-6-10.1h0ZM1526,572.5l2.8,5,28.2,13.9,11.1,16.7-2.3,20.2,2.9,2.3,1.2-23.6-12.4-16.6-28.6-13.5-2.9-4.4h0ZM1703.4,574.4l-8.1,13.1h1.4l6.7-13.1ZM332.5,575.9l-4.5,6.7.9-.3,3.7-6.4h-.1ZM336.1,576.6l-1.2,6.6.4-.2.7-6.4h.1ZM340,579.8l-3,27.1,1.9,1.6,1.8-27.6-.7-1.1h0ZM1621.9,580.1l5.6,8.5,1.4.5-7-9ZM1701.7,586.5l-9.4,11.5,1.7-.8,7.7-10.7h0ZM1623,587.1l5.1,10.1,2.2.9-7.3-11h0ZM425.1,588.5l17.5,1.7,12.8,11.8-4.1,5.1-.3.2h-29.9l14.1.8-.4.7-1.1,3.6.6-.2.8-2.9v-1.1l6.3.3-1.7,2.5-6.8,2.6h0l-1.5,6.1-12.6-12.3,18.3,19.7h0l-7.5,4.1-41.6,1,42.5.6,3-1.8,6.3-3.6-7.5-7.3,1.7-6.4,6.2-2.4,1.5-3.1,10.4.6,6.1-6.9h-.1l-14.9-12.6-17.8-1-.3.2h0ZM508.6,592.7l-8,11h1.5l6.5-11ZM1700.9,593.9l1.9,4.8.2-.7-2.1-4.2h0ZM1624.4,596.1l6.7,9.5,2.3.6-9-10.1ZM1707.4,596.9l-.9,5.3-1.8,6.9,1.7-1.3,1.1-6.3v-4.7h0ZM1623.4,601.2l2.7,4.9.7.2-3.4-5.2h0ZM1620.4,601.6l.4,4.8.3.2-.7-4.9h0ZM503.2,603.6l-8.8,8.6,1.7-.5,7-8.1h0ZM1617,603.8l-.6.8.3,20.6,1.6-1.1-1.4-20.2h0ZM501,610.2l-9,11.7,1.6-.3,7.5-11.4h-.1ZM497.7,620.7l-10.3,10.4,2-.5,8.3-9.9ZM495.8,629.1l-10.9,12.7,3.1-.9,7.8-11.8ZM397.6,632.6l.4.6,5.5,2.6.5-.3-5.7-2.5v-.4h-.7,0ZM409.1,632.7h-.7l-1.4,4.2,7.1,2.4.5-.5-6.9-2.1,1.5-4h-.1ZM428,633l-1.2,3.5-13,15.1-.3,22.1,3.1-2.1-1.2-18.9,12.2-15.8,1.1-3.8h-.7ZM493.1,639.8l-13.2,11.6,3.2-.6,10-11ZM494.2,645.9l-5.1,6,1-.2,4.1-5.7h0ZM498.3,646.6l-1.3,5.9.5-.2.8-5.7ZM502.6,649.5l-3.4,24.2,2.2,1.4,2-24.6-.7-1h-.1ZM926,649.5l2.9,9-2.3,3.8-18.1.6,7.7.3-4,8.4.8,1.2,4.1-9.5h-.3l10.5.3,3.3-4.9-4.7-9.2h0ZM901.8,659.1l17,23.7-6.9,6.3,9.1-6.2-19.1-23.8h0ZM771.9,685.3l-8,5.4-40.3-.6,13.3.7-1.7,4.9.5-.4,1.8-4.5,26.9,1.5,7.6-7h0ZM945.5,686.4l10.9,15.1-3,6.6-29-.2,29.5,2,5.9-8.3-14.3-15.1h0ZM913.9,688.2l-.8.7,2.4,18.1,11.5,11.8,1.4-1-11.5-12-2.9-17.6h-.1ZM895.1,688.9l-2.7,7.9,1.2.5,2.5-8.3-1-.2h0ZM746.9,691.5l-12.2,6.1-.7,1.3h0l-1.4,3.3-16.9,13.8.2,1,1.1-.8,16-13.8,1.6-3.8,12.4-7.2h0ZM658.9,693.2v.2l.2.3-.2-.5ZM659.1,693.7l4,8.5,31.7,1.7h-.5l2.1,6.1-1.4-6.1,13,.7h-.2l1.6,9.8,1.4.4-2.4-10.2,8.8.5-53.4-3.8-4.7-7.5h0ZM1241.1,695.1l-5.5,14,1.2-1.1,4.3-12.9ZM888.6,695.5l.3.7,21.5,9.5.3-1-22.2-9.1h.1ZM681.2,703.2l4.9,6.9,10.9,2.4,13.8,9.6h-.3l.3.9-7,31.2,3.3,2.5,4.7-35.8.3-.6-14.9-8.6-10.9-2-5.1-6.6h0ZM1238.4,706.8l-4.7,11,1.4-.2,3.2-10.8h0ZM937.6,712.6l-1.8,3.7-6.9,5.7,1.1.4,6.7-5.7,1-4.1h0ZM1237.7,716.9l-6.2,12.9,1.2-.6,5-12.3h0ZM931.6,721.3l-.8.7,1.5,32.5,2-2-2.2-30.8-.5-.3h0ZM1236.5,728.1l-7.2,13.9h1.4l5.7-13.9h0ZM1235.8,740.3l-8.7,12.4,1.7-1,7.1-11.5h0ZM1235.6,747.6l2.4,4.8.7-3.2-3.1-1.6ZM1242.5,750.1l-.5,5.4-1.3,7.1,1.7-1.4.6-6.3-.5-4.7h0Z"/>
    </g>
  </g>
  <path id="path9433" class="st0" d="M2251.5,475.8c-39.7,0-86.5.4-141.9,1.2-146.3,2-265.3,4.7-308.1,5.9-201.4,4.7-303,7.2-350.2,6.7-116.6-1-103.9-4.7-309.7-9.6-168.3-4.2-280.9-4.2-334.4-3.9-125,.3-187.4.5-260.1,5.4-119.2,7.8-218.8,22.3-261.3,28.4-108.4,15.9-133.6,25-222.1,31.9-51.7,3.9-90.4,4.4-162.7,5.4-23.1.3-75.1.8-232.6-2.4-161.3-3.3-241.9-4.9-242.9-4.9,0,0-75.4-5.2-178.8,1.8-10.9.8-23.9,1.8-33.3,5.7-34.8,14.1,3.7,55.8,70.6,64.5,28.9,2.6,51.4-1.3,87.5-4.7,75.9-6.8,114.9-2.3,241.3,1.8,40.6,1.3-4.4-.5,299.5,3.2,254.6,3.3,282.4,4.4,370.7,3.3,92-1.3,159.3-2.4,249.9-9.3,80-6.2,103.1-11.1,190.2-17.6,95.3-7.2,168.6-8.8,228.1-10.2,108.3-2.4,197.2-.3,375.1,4.2,100.5,2.4,150.7,3.7,222.6,6.7,131.2,5.7,160.3,9.8,274.9,12.5,36.1,1,97.5,2.4,178.8,2,71.2-.5,80-2,145.3-1.5,67.8.5,83.6,2.3,127.9.3,56.4-2.3,87.8-3.7,117.5-11.7,66.8-18,67.3-54.1,67.5-65.8.2-14.6.3-22.3-12-29.9-23.9-14.6-78.1-19.1-197.1-19.2l-.2-.2h0ZM805.5,647.1c-36.7.2-79.4.8-136.3,1.7-48.6.7-151.2,2.4-304.3,7.3-187.3,6-175.6,8-281.7,10.2-42.9,1-135.6,1.1-319,1.5-39,0-147.3.3-280.6,1.3-201.6,1.6-279.6,3.9-308.2,15.6-11.1,4.6-10.9,8.9-10.4,17.6.3,6.8,1.5,27.6,62.6,37.2,27.3,4.4,55.9,4.7,107.3,5.2,40.3.2,54.6-1,116.4-2.3,59.5-1,67.5-.5,132.3-1.3,74-.8,129.9-2.8,162.7-3.7,104.4-3.4,130.7-6.3,250-11.5,65.4-2.9,111-4.4,202.4-7.3,161.8-5.2,242.7-7.8,341.4-8.1,54.1-.3,121-.3,207.8,2.4,79.5,2.4,100.5,4.9,173.5,7.3,82.4,2.8,143.9,2.6,227.6,1.8,80.6-.5,105.7-1.6,337.5-7.3,276.5-6.7,235.7-4.9,272.6-6.3,114.9-4.2,150.4-7.6,219.6-4.7,33,1.5,53.3,3.6,79.3.8,60.6-6.2,95.1-31.1,63.1-38.7-8.6-2-20.5-2.4-30.4-2.8-94.1-2.4-162.7,1.8-162.7,1.8-.8.3-74.1,2.3-220.9,6.7-143.2,4.1-190.5,4.6-211.7,4.9-65.8.5-101.1.7-148.3-.8-80.6-2.6-103.7-7.5-202.7-15.1-38.9-2.9-129.7-9.8-238.3-12.5-33.1-.7-63.9-.9-100.6-.7v-.2h0ZM2560.6,775.7c-14.3.2-30.9.5-57.8.7-52,.5-59,0-115.6,0-64.5.2-113.5,1-142.1,1.5-91,1.5-114.1,3.1-218.3,5.9-57.1,1.5-96.9,2.1-176.7,3.4-141.4,2.1-212,3.4-298.2,2.9-47.3-.2-105.7-.5-181.4-2.9-69.3-2.3-87.6-4.2-151.4-6.2-72-2.4-125.5-2.4-198.7-2.8-70.2,0-92.2.5-294.6,2.8-241.4,2.8-205.8,1.6-238,2.4-100.5,2.3-131.4,4.2-191.8,1.8-28.8-1-46.5-2.4-69.4-.7-53,3.7-83.2,19.8-55.4,25.2,7.5,1.5,17.9,1.6,26.5,1.9,82.3,2.3,142.1,0,142.1,0,.7-.2,64.9-1,193-2.9,125.2-1.8,166.5-1.8,184.8-1.8,57.4,0,88.3.2,129.4,1.5,70.2,2.1,90.4,5.5,176.7,11.2,33.8,2.4,113.2,7.6,207.9,10.1,57.7,1.5,107.5,1.3,206.8,1,42.6-.2,132-.6,265.8-2.9,163.7-2.6,153.5-4.1,246.1-4.9,37.6-.2,118.4.3,278.5,1.3,34,.2,128.6.6,245,1,176.1.3,244-.7,269.2-8.3,9.8-2.9,9.6-5.9,9.3-11.5-.3-4.7-1-18.5-54.3-25.2-23.9-3.3-48.8-3.4-93.6-4.2-17.6-.4-29.5-.4-43.8-.2h0Z"/>
</svg>