<?xml version="1.0" encoding="UTF-8"?>
<svg id="Layer_1" xmlns="http://www.w3.org/2000/svg" version="1.1" xmlns:xlink="http://www.w3.org/1999/xlink" viewBox="0 0 300 100">
  <!-- Generator: Adobe Illustrator 29.3.0, SVG Export Plug-In . SVG Version: 2.1.0 Build 146)  -->
  <defs>
    <style>
      .st0 {
        fill: url(#linear-gradient2);
      }

      .st1 {
        filter: url(#drop-shadow-2);
      }

      .st2 {
        fill: url(#linear-gradient1);
      }

      .st3 {
        fill: url(#linear-gradient);
        filter: url(#drop-shadow-1);
      }

      .st4 {
        fill: url(#linear-gradient4);
      }

      .st5 {
        fill: url(#linear-gradient5);
      }

      .st6 {
        fill: url(#linear-gradient3);
      }

      .st7 {
        fill: url(#linear-gradient6);
      }
    </style>
    <linearGradient id="linear-gradient" x1="152.9" y1="89.1" x2="152.9" y2="52.3" gradientUnits="userSpaceOnUse">
      <stop offset="0" stop-color="#fff"/>
      <stop offset="1" stop-color="#000"/>
    </linearGradient>
    <filter id="drop-shadow-1" x="110" y="63" width="86" height="33" filterUnits="userSpaceOnUse">
      <feOffset dx="0" dy="0"/>
      <feGaussianBlur result="blur" stdDeviation="2"/>
      <feFlood flood-color="#000" flood-opacity=".8"/>
      <feComposite in2="blur" operator="in"/>
      <feComposite in="SourceGraphic"/>
    </filter>
    <filter id="drop-shadow-2" x="88" y="14" width="131" height="53" filterUnits="userSpaceOnUse">
      <feOffset dx="0" dy="0"/>
      <feGaussianBlur result="blur1" stdDeviation="2"/>
      <feFlood flood-color="#000" flood-opacity=".8"/>
      <feComposite in2="blur1" operator="in"/>
      <feComposite in="SourceGraphic"/>
    </filter>
    <linearGradient id="linear-gradient1" x1="101.8" y1="15.5" x2="101.8" y2="121.8" xlink:href="#linear-gradient"/>
    <linearGradient id="linear-gradient2" x1="120.4" y1="15.5" x2="120.4" y2="121.8" xlink:href="#linear-gradient"/>
    <linearGradient id="linear-gradient3" x1="142.8" y1="15.5" x2="142.8" y2="121.8" xlink:href="#linear-gradient"/>
    <linearGradient id="linear-gradient4" x1="164.8" y1="15.5" x2="164.8" y2="121.8" gradientUnits="userSpaceOnUse">
      <stop offset="0" stop-color="#fff"/>
      <stop offset="1" stop-color="#333"/>
    </linearGradient>
    <linearGradient id="linear-gradient5" x1="186.5" y1="15.5" x2="186.5" y2="121.8" xlink:href="#linear-gradient"/>
    <linearGradient id="linear-gradient6" x1="204.7" y1="15.5" x2="204.7" y2="121.8" xlink:href="#linear-gradient"/>
  </defs>
  <polygon class="st3" points="116.7 69.9 152.9 89.4 189.1 69.9 116.7 69.9"/>
  <g class="st1">
    <path class="st2" d="M103.9,27.9c-1.3.9-2,2.7-2,4.5s.3,2.3,1,3.3c2.1,3.2,6.4,8.4,6.4,14.3s-.7,4.7-2.4,7.1c-2.5,2.4-7.1,3.2-12.4,3.2v-6.1h2c2.2,0,4.9-.2,6.5-2.6.1-.7.2-1.4.2-2,0-6.5-6.8-10.1-7.1-15.3,0-.6,0-1.2,0-1.8,0-3.3.7-7.1,3.6-9.3,1.5-1.1,4.5-1.9,7.6-2.1l.9,5.7c-1.6.2-3.1.5-4.2,1.3Z"/>
    <path class="st0" d="M127,60.3c-3.5,0-11.6-.2-13-6-.7-2.8-1.2-7.2-1.2-12s.3-8.4,1.1-12.7c.6-3.5,3.2-6.3,5.1-7,1.6-.6,4.2-.8,6.8-.8s1.3,0,2,0v5.5c-2.7,0-6.5.6-8.1,4.4-.7,7.1-1,10.6-.5,17.1.3,4.9,5.3,5.6,8.4,5.6.1,1.3.2,2.5.2,4s0,1.2,0,2h-.9Z"/>
    <path class="st6" d="M148.6,60.9c-3-5.5-4.9-10.1-7.2-14.5h-2.5c-.4,3.5-.5,9.6-.7,13.6-1.2,0-2.3,0-3.5,0s-1.3,0-2,0v-3.9c0-11.4.2-23.7.4-34.2.7,0,1.6,0,2.4,0,1.3,0,2.7,0,4.1,0,2.9,0,5.7.2,6.7,1.8,1.2,1.8,2.4,4.5,2.5,6.6,0,1.8.1,3.5.1,5.1,0,2.6-.2,5-1,7.6-.3.5-.6,1.2-1.5,1.5l6.4,13.7-4.3,2.7ZM142.1,28c-.6-.9-2.4-.8-3.6-.5.2,4.1,0,9.6.2,14.1.5,0,1.1,0,1.7,0,1.5-.1,2.5-1,2.5-2.2v-6.9c.2-1.7-.2-3.5-.9-4.5Z"/>
    <path class="st4" d="M172.5,56.9c-2.2,3.6-6.4,3.9-9.8,3.9h-1c-2.5-1-3.5-2.1-4.5-3.6-1.5-2.2-1.9-7.4-1.9-13.2s.3-10.2.4-14.4c0-2.4.9-5.1,2.8-6.7,1.5-.9,3.7-1.3,6-1.3s5.6.6,6.9,1.3c2.6,1.4,3.1,5.4,3.1,9.7s-.2,5.2-.2,7.4c-.2,6.3.2,13.6-1.8,16.8ZM165.4,27.2c-1.5,0-3.6,0-3.8,2.1-.6,6-.6,14.3-.5,20.6,0,1.3.6,4.2,2.4,4.3,1.2.4,4-.4,4.3-2.3.9-6,.3-13.8.2-22.2-.2-1.4-1.2-2.2-2.5-2.5Z"/>
    <path class="st5" d="M180.1,60l-.4-.2-.6-37.4v-.5s5.5.2,5.5.2l1.3,32.1c2.4.2,5.5.1,7.7,0,0,1,0,2.2,0,3.5s0,1.6,0,2.3h-13.7Z"/>
    <path class="st7" d="M198.1,60l-.4-.2-.3-37.4v-.5s6-.3,6-.3l.5,32.7c2.4.2,4.9,0,7.2,0,.4,2.3.7,3.9.9,5.8h-13.9Z"/>
  </g>
</svg>